<svg data-v-423bf9ae="" xmlns="http://www.w3.org/2000/svg" viewBox="0 0 95.88068233772128 60" class="font"><!----><!----><!----><g data-v-423bf9ae="" id="dbcb91a9-16e9-4bf5-9d5f-43d3a41b84e6" fill="black" transform="matrix(4.261363659454279,0,0,4.261363659454279,-4.7727254654227025,2.9829543320046454)"><path d="M1.40 10.50L1.12 10.50L1.12-0.70L1.40-0.70L1.40 10.50ZM8.36 9.62L8.36 9.62L8.36 9.62Q7.60 10.58 6.20 10.58L6.20 10.58L6.20 10.58Q4.80 10.58 4.05 9.62L4.05 9.62L4.05 9.62Q3.29 8.65 3.29 6.93L3.29 6.93L3.29 6.65L3.29 6.65Q3.29 4.93 4.05 3.96L4.05 3.96L4.05 3.96Q4.80 3.00 6.20 3.00L6.20 3.00L6.20 3.00Q7.60 3.00 8.36 3.96L8.36 3.96L8.36 3.96Q9.11 4.93 9.11 6.65L9.11 6.65L9.11 6.93L9.11 6.93Q9.11 8.65 8.36 9.62ZM4.26 9.41L4.26 9.41L4.26 9.41Q4.94 10.30 6.20 10.30L6.20 10.30L6.20 10.30Q7.46 10.30 8.15 9.41L8.15 9.41L8.15 9.41Q8.83 8.51 8.83 6.93L8.83 6.93L8.83 6.65L8.83 6.65Q8.83 5.07 8.15 4.17L8.15 4.17L8.15 4.17Q7.46 3.28 6.20 3.28L6.20 3.28L6.20 3.28Q4.94 3.28 4.26 4.17L4.26 4.17L4.26 4.17Q3.57 5.07 3.57 6.65L3.57 6.65L3.57 6.93L3.57 6.93Q3.57 8.51 4.26 9.41ZM13.38 13.38L13.38 13.38L13.38 13.38Q11.98 13.38 11.32 12.66L11.32 12.66L11.32 12.66Q10.65 11.93 10.65 10.65L10.65 10.65L10.65 10.50L10.93 10.50L10.93 10.50Q10.93 11.77 11.50 12.44L11.50 12.44L11.50 12.44Q12.07 13.10 13.38 13.10L13.38 13.10L13.38 13.10Q15.76 13.10 15.76 10.50L15.76 10.50L15.76 8.89L15.76 8.89Q14.92 10.02 13.48 10.02L13.48 10.02L13.48 10.02Q12.10 10.02 11.38 9.14L11.38 9.14L11.38 9.14Q10.65 8.26 10.65 6.65L10.65 6.65L10.65 6.37L10.65 6.37Q10.65 4.76 11.38 3.88L11.38 3.88L11.38 3.88Q12.10 3.00 13.48 3.00L13.48 3.00L13.48 3.00Q14.95 3.00 15.81 4.19L15.81 4.19L15.90 3.08L16.11 3.08L16.04 4.76L16.04 10.65L16.04 10.65Q16.04 11.91 15.39 12.65L15.39 12.65L15.39 12.65Q14.73 13.38 13.38 13.38ZM15.76 8.44L15.76 8.44L15.76 4.58L15.76 4.58Q14.91 3.28 13.50 3.28L13.50 3.28L13.50 3.28Q12.24 3.28 11.59 4.09L11.59 4.09L11.59 4.09Q10.93 4.90 10.93 6.37L10.93 6.37L10.93 6.65L10.93 6.65Q10.93 8.12 11.59 8.93L11.59 8.93L11.59 8.93Q12.24 9.74 13.50 9.74L13.50 9.74L13.50 9.74Q14.91 9.74 15.76 8.44ZM22.86 9.62L22.86 9.62L22.86 9.62Q22.11 10.58 20.71 10.58L20.71 10.58L20.71 10.58Q19.31 10.58 18.55 9.62L18.55 9.62L18.55 9.62Q17.79 8.65 17.79 6.93L17.79 6.93L17.79 6.65L17.79 6.65Q17.79 4.93 18.55 3.96L18.55 3.96L18.55 3.96Q19.31 3.00 20.71 3.00L20.71 3.00L20.71 3.00Q22.11 3.00 22.86 3.96L22.86 3.96L22.86 3.96Q23.62 4.93 23.62 6.65L23.62 6.65L23.62 6.93L23.62 6.93Q23.62 8.65 22.86 9.62ZM18.76 9.41L18.76 9.41L18.76 9.41Q19.45 10.30 20.71 10.30L20.71 10.30L20.71 10.30Q21.97 10.30 22.65 9.41L22.65 9.41L22.65 9.41Q23.34 8.51 23.34 6.93L23.34 6.93L23.34 6.65L23.34 6.65Q23.34 5.07 22.65 4.17L22.65 4.17L22.65 4.17Q21.97 3.28 20.71 3.28L20.71 3.28L20.71 3.28Q19.45 3.28 18.76 4.17L18.76 4.17L18.76 4.17Q18.07 5.07 18.07 6.65L18.07 6.65L18.07 6.93L18.07 6.93Q18.07 8.51 18.76 9.41Z"></path></g><!----><!----></svg>